<?xml version="1.0" encoding="UTF-8"?>
<svg version="1.1" xmlns="http://www.w3.org/2000/svg" width="64" height="81">
<path d="M0 0 C1.15790039 -0.00315216 2.31580078 -0.00630432 3.50878906 -0.009552 C4.76916992 -0.00752777 6.02955078 -0.00550354 7.328125 -0.00341797 C8.61170898 -0.00437469 9.89529297 -0.00533142 11.21777344 -0.00631714 C13.93816324 -0.00779378 16.65852025 -0.00564066 19.37890625 -0.00097656 C22.87297169 0.00472073 26.36696033 0.00144154 29.86102295 -0.00454903 C33.18339653 -0.00902301 36.50574923 -0.00589432 39.828125 -0.00341797 C41.08850586 -0.0054422 42.34888672 -0.00746643 43.64746094 -0.009552 C44.80536133 -0.00639984 45.96326172 -0.00324768 47.15625 0 C48.18137695 0.00079559 49.20650391 0.00159119 50.26269531 0.00241089 C52.578125 0.12939453 52.578125 0.12939453 53.578125 1.12939453 C53.67309208 3.53287739 53.70371362 5.90750435 53.69165039 8.3112793 C53.69179642 9.06245026 53.69194244 9.81362122 53.6920929 10.58755493 C53.69139363 13.08199912 53.68360064 15.57636956 53.67578125 18.07080078 C53.67391712 19.79573018 53.67249319 21.5206601 53.67149353 23.24559021 C53.66766797 27.79451957 53.65783738 32.3434172 53.64678955 36.89233398 C53.63657624 41.53059459 53.63199608 46.16886031 53.62695312 50.80712891 C53.61621514 59.91456475 53.59913827 69.02197701 53.578125 78.12939453 C50.99800855 79.41945276 49.1312066 79.26347088 46.2421875 79.2746582 C45.12763184 79.28103806 44.01307617 79.28741791 42.86474609 79.29399109 C41.05224365 79.29566032 41.05224365 79.29566032 39.203125 79.29736328 C37.96771973 79.30069168 36.73231445 79.30402008 35.45947266 79.30744934 C32.84342828 79.31251943 30.22737741 79.31485764 27.61132812 79.31469727 C24.92245799 79.31461576 22.23375728 79.32159299 19.54492188 79.33520508 C15.68093609 79.35344483 11.81714942 79.35843008 7.953125 79.35986328 C6.14062256 79.37064156 6.14062256 79.37064156 4.29150391 79.38163757 C2.61967041 79.37702263 2.61967041 79.37702263 0.9140625 79.37231445 C-0.07029785 79.37373947 -1.0546582 79.37516449 -2.06884766 79.37663269 C-4.421875 79.12939453 -4.421875 79.12939453 -6.421875 77.12939453 C-6.61479923 74.69555823 -6.68428522 72.37605097 -6.66479492 69.94165039 C-6.66669327 69.20169327 -6.66859161 68.46173615 -6.67054749 67.69935608 C-6.67425961 65.24754321 -6.66354589 62.79602493 -6.65234375 60.34423828 C-6.65115219 58.64555394 -6.65069874 56.94686894 -6.6509552 55.2481842 C-6.64938964 51.68632896 -6.64109375 48.12457413 -6.62768555 44.56274414 C-6.61068269 39.98693866 -6.60687152 35.41124349 -6.60763073 30.83541012 C-6.60735941 27.3276717 -6.60188455 23.8199576 -6.59462929 20.31222725 C-6.59143744 18.62444811 -6.58947402 16.9366662 -6.58873558 15.2488842 C-6.58657818 12.8951226 -6.57784747 10.54148031 -6.56713867 8.18774414 C-6.56759186 7.48382538 -6.56804504 6.77990662 -6.56851196 6.05465698 C-6.52804541 0.0016341 -5.91224605 0.00458845 0 0 Z M1.578125 8.12939453 C1.578125 28.91939453 1.578125 49.70939453 1.578125 71.12939453 C3.888125 71.12939453 6.198125 71.12939453 8.578125 71.12939453 C8.578125 52.97939453 8.578125 34.82939453 8.578125 16.12939453 C30.24479167 11.12939453 30.24479167 11.12939453 41.578125 11.12939453 C41.908125 30.92939453 42.238125 50.72939453 42.578125 71.12939453 C43.898125 71.12939453 45.218125 71.12939453 46.578125 71.12939453 C46.60370314 64.24667158 46.62108662 57.36396112 46.63305664 50.48120117 C46.63805245 48.14493349 46.64485137 45.80866888 46.65356445 43.47241211 C46.66584002 40.09374223 46.67140098 36.71511407 46.67578125 33.33642578 C46.68094254 32.30983353 46.68610382 31.28324127 46.69142151 30.22554016 C46.69198512 22.76310668 46.15478691 15.62599941 45.578125 8.12939453 C31.058125 8.12939453 16.538125 8.12939453 1.578125 8.12939453 Z M25.640625 18.56689453 C24.80337891 18.70160156 23.96613281 18.83630859 23.10351562 18.97509766 C22.30236328 19.10722656 21.50121094 19.23935547 20.67578125 19.37548828 C19.56988647 19.55615845 19.56988647 19.55615845 18.44165039 19.74047852 C16.49709047 20.06364003 16.49709047 20.06364003 14.578125 21.12939453 C14.578125 35.64939453 14.578125 50.16939453 14.578125 65.12939453 C24.91412806 68.85362683 24.91412806 68.85362683 35.578125 70.12939453 C35.578125 52.63939453 35.578125 35.14939453 35.578125 17.12939453 C32.28428305 17.12939453 28.88273231 18.03275425 25.640625 18.56689453 Z " fill="#4379C5" transform="translate(8.421875,0.87060546875)"/>
<path d="M0 0 C2.5 0.125 2.5 0.125 3.5 1.125 C3.625 3.625 3.625 3.625 3.5 6.125 C2.5 7.125 2.5 7.125 0 7.25 C-2.5 7.125 -2.5 7.125 -3.5 6.125 C-3.625 3.625 -3.625 3.625 -3.5 1.125 C-2.5 0.125 -2.5 0.125 0 0 Z " fill="#4278C3" transform="translate(38.5,40.875)"/>
</svg>
